<?xml version="1.0" encoding="us-ascii" standalone="no"?><svg xmlns="http://www.w3.org/2000/svg" xmlns:xlink="http://www.w3.org/1999/xlink" contentStyleType="text/css" height="1008px" preserveAspectRatio="none" style="width:1027px;height:1008px;background:#FFFFFF;" version="1.1" viewBox="0 0 1027 1008" width="1027px" zoomAndPan="magnify"><defs/><g><text fill="#000000" font-family="sans-serif" font-size="14" font-weight="bold" lengthAdjust="spacing" textLength="296" x="364" y="32.9951">Java 8 HashMap.put(k,v) &#8212; Logic Flow</text><ellipse cx="379.5" cy="57.2969" fill="#222222" rx="10" ry="10" style="stroke:#222222;stroke-width:1.0;"/><rect fill="#F1F1F1" height="33.9688" rx="12.5" ry="12.5" style="stroke:#181818;stroke-width:0.5;" width="72" x="343.5" y="87.2969"/><text fill="#000000" font-family="sans-serif" font-size="12" lengthAdjust="spacing" textLength="52" x="353.5" y="108.4355">put(k, v)</text><rect fill="#F1F1F1" height="75.875" rx="12.5" ry="12.5" style="stroke:#181818;stroke-width:0.5;" width="225" x="267" y="189.668"/><text fill="#000000" font-family="sans-serif" font-size="12" lengthAdjust="spacing" textLength="123" x="277" y="210.8066">resize();\n// initialize</text><text fill="#000000" font-family="sans-serif" font-size="12" lengthAdjust="spacing" textLength="31" x="277" y="224.7754">endif</text><text fill="#000000" font-family="sans-serif" font-size="12" lengthAdjust="spacing" textLength="4" x="277" y="238.7441">&#160;</text><text fill="#000000" font-family="sans-serif" font-size="12" lengthAdjust="spacing" textLength="205" x="277" y="252.7129">:hash = spread(key.hashCode())</text><rect fill="#F1F1F1" height="33.9688" rx="12.5" ry="12.5" style="stroke:#181818;stroke-width:0.5;" width="158" x="300.5" y="285.543"/><text fill="#000000" font-family="sans-serif" font-size="12" lengthAdjust="spacing" textLength="138" x="310.5" y="306.6816">index = (n - 1) &amp; hash</text><polygon fill="#F1F1F1" points="320.5,339.5117,438.5,339.5117,450.5,351.5117,438.5,363.5117,320.5,363.5117,308.5,351.5117,320.5,339.5117" style="stroke:#181818;stroke-width:0.5;"/><text fill="#000000" font-family="sans-serif" font-size="11" lengthAdjust="spacing" textLength="118" x="320.5" y="355.3198">table[index] == null?</text><text fill="#000000" font-family="sans-serif" font-size="11" lengthAdjust="spacing" textLength="20" x="288.5" y="348.9175">yes</text><text fill="#000000" font-family="sans-serif" font-size="11" lengthAdjust="spacing" textLength="14" x="450.5" y="348.9175">no</text><rect fill="#F1F1F1" height="33.9688" rx="12.5" ry="12.5" style="stroke:#181818;stroke-width:0.5;" width="282" x="11" y="373.5117"/><text fill="#000000" font-family="sans-serif" font-size="12" lengthAdjust="spacing" textLength="262" x="21" y="394.6504">table[index] = newNode(key, value, hash)</text><polygon fill="#F1F1F1" points="416,373.5117,798,373.5117,810,385.5117,798,397.5117,416,397.5117,404,385.5117,416,373.5117" style="stroke:#181818;stroke-width:0.5;"/><text fill="#000000" font-family="sans-serif" font-size="11" lengthAdjust="spacing" textLength="382" x="416" y="389.3198">first.hash == hash and (first.key == key or equals(first.key, key))?</text><text fill="#000000" font-family="sans-serif" font-size="11" lengthAdjust="spacing" textLength="20" x="384" y="382.9175">yes</text><text fill="#000000" font-family="sans-serif" font-size="11" lengthAdjust="spacing" textLength="14" x="810" y="382.9175">no</text><rect fill="#F1F1F1" height="33.9688" rx="12.5" ry="12.5" style="stroke:#181818;stroke-width:0.5;" width="142" x="323" y="407.5117"/><text fill="#000000" font-family="sans-serif" font-size="12" lengthAdjust="spacing" textLength="122" x="333" y="428.6504">overwrite first.value</text><rect fill="#F1F1F1" height="61.9063" rx="12.5" ry="12.5" style="stroke:#181818;stroke-width:0.5;" width="306" x="667" y="455.9141"/><text fill="#000000" font-family="sans-serif" font-size="12" lengthAdjust="spacing" textLength="286" x="677" y="477.0527">putTreeVal(first, key, value);\n// RB-tree insert</text><text fill="#000000" font-family="sans-serif" font-size="12" lengthAdjust="spacing" textLength="56" x="677" y="491.0215">else (no)</text><text fill="#000000" font-family="sans-serif" font-size="12" lengthAdjust="spacing" textLength="197" x="685" y="504.9902">:append new node to linked list</text><rect fill="#F1F1F1" height="47.9375" rx="12.5" ry="12.5" style="stroke:#181818;stroke-width:0.5;" width="168" x="736" y="586.2227"/><text fill="#000000" font-family="sans-serif" font-size="12" lengthAdjust="spacing" textLength="105" x="746" y="607.3613">treeifyBin(index);</text><text fill="#000000" font-family="sans-serif" font-size="12" lengthAdjust="spacing" textLength="148" x="746" y="621.3301">// convert list to RB-tree</text><polygon fill="#F1F1F1" points="720,537.8203,920,537.8203,932,549.8203,920,561.8203,720,561.8203,708,549.8203,720,537.8203" style="stroke:#181818;stroke-width:0.5;"/><text fill="#000000" font-family="sans-serif" font-size="11" lengthAdjust="spacing" textLength="20" x="824" y="572.0308">yes</text><text fill="#000000" font-family="sans-serif" font-size="11" lengthAdjust="spacing" textLength="200" x="720" y="553.6284">binCount &gt;= TREEIFY_THRESHOLD?</text><polygon fill="#F1F1F1" points="820,654.1602,832,666.1602,820,678.1602,808,666.1602,820,654.1602" style="stroke:#181818;stroke-width:0.5;"/><polygon fill="#F1F1F1" points="744.5,407.5117,895.5,407.5117,907.5,419.5117,895.5,431.5117,744.5,431.5117,732.5,419.5117,744.5,407.5117" style="stroke:#181818;stroke-width:0.5;"/><text fill="#000000" font-family="sans-serif" font-size="11" lengthAdjust="spacing" textLength="20" x="824" y="441.7222">yes</text><text fill="#000000" font-family="sans-serif" font-size="11" lengthAdjust="spacing" textLength="151" x="744.5" y="423.3198">first instanceof TreeNode?</text><polygon fill="#F1F1F1" points="820,698.1602,832,710.1602,820,722.1602,808,710.1602,820,698.1602" style="stroke:#181818;stroke-width:0.5;"/><polygon fill="#F1F1F1" points="607,728.1602,619,740.1602,607,752.1602,595,740.1602,607,728.1602" style="stroke:#181818;stroke-width:0.5;"/><polygon fill="#F1F1F1" points="379.5,758.1602,391.5,770.1602,379.5,782.1602,367.5,770.1602,379.5,758.1602" style="stroke:#181818;stroke-width:0.5;"/><rect fill="#F1F1F1" height="33.9688" rx="12.5" ry="12.5" style="stroke:#181818;stroke-width:0.5;" width="66" x="346.5" y="850.5625"/><text fill="#000000" font-family="sans-serif" font-size="12" lengthAdjust="spacing" textLength="46" x="356.5" y="871.7012">resize()</text><polygon fill="#F1F1F1" points="330,802.1602,429,802.1602,441,814.1602,429,826.1602,330,826.1602,318,814.1602,330,802.1602" style="stroke:#181818;stroke-width:0.5;"/><text fill="#000000" font-family="sans-serif" font-size="11" lengthAdjust="spacing" textLength="20" x="383.5" y="836.3706">yes</text><text fill="#000000" font-family="sans-serif" font-size="11" lengthAdjust="spacing" textLength="99" x="330" y="817.9683">size &gt; threshold?</text><polygon fill="#F1F1F1" points="379.5,904.5313,391.5,916.5313,379.5,928.5313,367.5,916.5313,379.5,904.5313" style="stroke:#181818;stroke-width:0.5;"/><ellipse cx="379.5" cy="959.5313" fill="none" rx="11" ry="11" style="stroke:#222222;stroke-width:1.0;"/><ellipse cx="379.5" cy="959.5313" fill="#222222" rx="6" ry="6" style="stroke:#222222;stroke-width:1.0;"/><polygon fill="#F1F1F1" points="283.5,141.2656,475.5,141.2656,487.5,153.2656,475.5,165.2656,283.5,165.2656,271.5,153.2656,283.5,141.2656" style="stroke:#181818;stroke-width:0.5;"/><text fill="#000000" font-family="sans-serif" font-size="11" lengthAdjust="spacing" textLength="20" x="383.5" y="175.4761">yes</text><text fill="#000000" font-family="sans-serif" font-size="11" lengthAdjust="spacing" textLength="192" x="283.5" y="157.0737">table is null or table.length == 0?</text><line style="stroke:#181818;stroke-width:1.0;" x1="379.5" x2="379.5" y1="67.2969" y2="87.2969"/><polygon fill="#181818" points="375.5,77.2969,379.5,87.2969,383.5,77.2969,379.5,81.2969" style="stroke:#181818;stroke-width:1.0;"/><line style="stroke:#181818;stroke-width:1.0;" x1="379.5" x2="379.5" y1="265.543" y2="285.543"/><polygon fill="#181818" points="375.5,275.543,379.5,285.543,383.5,275.543,379.5,279.543" style="stroke:#181818;stroke-width:1.0;"/><line style="stroke:#181818;stroke-width:1.0;" x1="820" x2="820" y1="561.8203" y2="586.2227"/><polygon fill="#181818" points="816,576.2227,820,586.2227,824,576.2227,820,580.2227" style="stroke:#181818;stroke-width:1.0;"/><line style="stroke:#181818;stroke-width:1.0;" x1="932" x2="944" y1="549.8203" y2="549.8203"/><polygon fill="#181818" points="940,600.1914,944,610.1914,948,600.1914,944,604.1914" style="stroke:#181818;stroke-width:1.0;"/><line style="stroke:#181818;stroke-width:1.0;" x1="944" x2="944" y1="549.8203" y2="666.1602"/><line style="stroke:#181818;stroke-width:1.0;" x1="944" x2="832" y1="666.1602" y2="666.1602"/><polygon fill="#181818" points="842,662.1602,832,666.1602,842,670.1602,838,666.1602" style="stroke:#181818;stroke-width:1.0;"/><line style="stroke:#181818;stroke-width:1.0;" x1="820" x2="820" y1="634.1602" y2="654.1602"/><polygon fill="#181818" points="816,644.1602,820,654.1602,824,644.1602,820,648.1602" style="stroke:#181818;stroke-width:1.0;"/><line style="stroke:#181818;stroke-width:1.0;" x1="820" x2="820" y1="517.8203" y2="537.8203"/><polygon fill="#181818" points="816,527.8203,820,537.8203,824,527.8203,820,531.8203" style="stroke:#181818;stroke-width:1.0;"/><line style="stroke:#181818;stroke-width:1.0;" x1="820" x2="820" y1="431.5117" y2="455.9141"/><polygon fill="#181818" points="816,445.9141,820,455.9141,824,445.9141,820,449.9141" style="stroke:#181818;stroke-width:1.0;"/><line style="stroke:#181818;stroke-width:1.0;" x1="907.5" x2="983" y1="419.5117" y2="419.5117"/><polygon fill="#181818" points="979,551.7383,983,561.7383,987,551.7383,983,555.7383" style="stroke:#181818;stroke-width:1.0;"/><line style="stroke:#181818;stroke-width:1.0;" x1="983" x2="983" y1="419.5117" y2="710.1602"/><line style="stroke:#181818;stroke-width:1.0;" x1="983" x2="832" y1="710.1602" y2="710.1602"/><polygon fill="#181818" points="842,706.1602,832,710.1602,842,714.1602,838,710.1602" style="stroke:#181818;stroke-width:1.0;"/><line style="stroke:#181818;stroke-width:1.0;" x1="820" x2="820" y1="678.1602" y2="698.1602"/><polygon fill="#181818" points="816,688.1602,820,698.1602,824,688.1602,820,692.1602" style="stroke:#181818;stroke-width:1.0;"/><line style="stroke:#181818;stroke-width:1.0;" x1="404" x2="394" y1="385.5117" y2="385.5117"/><line style="stroke:#181818;stroke-width:1.0;" x1="394" x2="394" y1="385.5117" y2="407.5117"/><polygon fill="#181818" points="390,397.5117,394,407.5117,398,397.5117,394,401.5117" style="stroke:#181818;stroke-width:1.0;"/><line style="stroke:#181818;stroke-width:1.0;" x1="810" x2="820" y1="385.5117" y2="385.5117"/><line style="stroke:#181818;stroke-width:1.0;" x1="820" x2="820" y1="385.5117" y2="407.5117"/><polygon fill="#181818" points="816,397.5117,820,407.5117,824,397.5117,820,401.5117" style="stroke:#181818;stroke-width:1.0;"/><line style="stroke:#181818;stroke-width:1.0;" x1="394" x2="394" y1="441.4805" y2="740.1602"/><line style="stroke:#181818;stroke-width:1.0;" x1="394" x2="595" y1="740.1602" y2="740.1602"/><polygon fill="#181818" points="585,736.1602,595,740.1602,585,744.1602,589,740.1602" style="stroke:#181818;stroke-width:1.0;"/><line style="stroke:#181818;stroke-width:1.0;" x1="820" x2="820" y1="722.1602" y2="740.1602"/><line style="stroke:#181818;stroke-width:1.0;" x1="820" x2="619" y1="740.1602" y2="740.1602"/><polygon fill="#181818" points="629,736.1602,619,740.1602,629,744.1602,625,740.1602" style="stroke:#181818;stroke-width:1.0;"/><line style="stroke:#181818;stroke-width:1.0;" x1="308.5" x2="152" y1="351.5117" y2="351.5117"/><line style="stroke:#181818;stroke-width:1.0;" x1="152" x2="152" y1="351.5117" y2="373.5117"/><polygon fill="#181818" points="148,363.5117,152,373.5117,156,363.5117,152,367.5117" style="stroke:#181818;stroke-width:1.0;"/><line style="stroke:#181818;stroke-width:1.0;" x1="450.5" x2="607" y1="351.5117" y2="351.5117"/><line style="stroke:#181818;stroke-width:1.0;" x1="607" x2="607" y1="351.5117" y2="373.5117"/><polygon fill="#181818" points="603,363.5117,607,373.5117,611,363.5117,607,367.5117" style="stroke:#181818;stroke-width:1.0;"/><line style="stroke:#181818;stroke-width:1.0;" x1="152" x2="152" y1="407.4805" y2="770.1602"/><line style="stroke:#181818;stroke-width:1.0;" x1="152" x2="367.5" y1="770.1602" y2="770.1602"/><polygon fill="#181818" points="357.5,766.1602,367.5,770.1602,357.5,774.1602,361.5,770.1602" style="stroke:#181818;stroke-width:1.0;"/><line style="stroke:#181818;stroke-width:1.0;" x1="607" x2="607" y1="752.1602" y2="770.1602"/><line style="stroke:#181818;stroke-width:1.0;" x1="607" x2="391.5" y1="770.1602" y2="770.1602"/><polygon fill="#181818" points="401.5,766.1602,391.5,770.1602,401.5,774.1602,397.5,770.1602" style="stroke:#181818;stroke-width:1.0;"/><line style="stroke:#181818;stroke-width:1.0;" x1="379.5" x2="379.5" y1="319.5117" y2="339.5117"/><polygon fill="#181818" points="375.5,329.5117,379.5,339.5117,383.5,329.5117,379.5,333.5117" style="stroke:#181818;stroke-width:1.0;"/><line style="stroke:#181818;stroke-width:1.0;" x1="379.5" x2="379.5" y1="826.1602" y2="850.5625"/><polygon fill="#181818" points="375.5,840.5625,379.5,850.5625,383.5,840.5625,379.5,844.5625" style="stroke:#181818;stroke-width:1.0;"/><line style="stroke:#181818;stroke-width:1.0;" x1="441" x2="453" y1="814.1602" y2="814.1602"/><polygon fill="#181818" points="449,857.5469,453,867.5469,457,857.5469,453,861.5469" style="stroke:#181818;stroke-width:1.0;"/><line style="stroke:#181818;stroke-width:1.0;" x1="453" x2="453" y1="814.1602" y2="916.5313"/><line style="stroke:#181818;stroke-width:1.0;" x1="453" x2="391.5" y1="916.5313" y2="916.5313"/><polygon fill="#181818" points="401.5,912.5313,391.5,916.5313,401.5,920.5313,397.5,916.5313" style="stroke:#181818;stroke-width:1.0;"/><line style="stroke:#181818;stroke-width:1.0;" x1="379.5" x2="379.5" y1="884.5313" y2="904.5313"/><polygon fill="#181818" points="375.5,894.5313,379.5,904.5313,383.5,894.5313,379.5,898.5313" style="stroke:#181818;stroke-width:1.0;"/><line style="stroke:#181818;stroke-width:1.0;" x1="379.5" x2="379.5" y1="782.1602" y2="802.1602"/><polygon fill="#181818" points="375.5,792.1602,379.5,802.1602,383.5,792.1602,379.5,796.1602" style="stroke:#181818;stroke-width:1.0;"/><line style="stroke:#181818;stroke-width:1.0;" x1="379.5" x2="379.5" y1="928.5313" y2="948.5313"/><polygon fill="#181818" points="375.5,938.5313,379.5,948.5313,383.5,938.5313,379.5,942.5313" style="stroke:#181818;stroke-width:1.0;"/><line style="stroke:#181818;stroke-width:1.0;" x1="379.5" x2="379.5" y1="165.2656" y2="189.668"/><polygon fill="#181818" points="375.5,179.668,379.5,189.668,383.5,179.668,379.5,183.668" style="stroke:#181818;stroke-width:1.0;"/><line style="stroke:#181818;stroke-width:1.0;" x1="487.5" x2="1001" y1="153.2656" y2="153.2656"/><polygon fill="#181818" points="997,566.2031,1001,576.2031,1005,566.2031,1001,570.2031" style="stroke:#181818;stroke-width:1.0;"/><line style="stroke:#181818;stroke-width:1.0;" x1="1001" x2="1001" y1="153.2656" y2="992.5313"/><line style="stroke:#181818;stroke-width:1.0;" x1="1001" x2="379.5" y1="992.5313" y2="992.5313"/><polygon fill="#181818" points="389.5,988.5313,379.5,992.5313,389.5,996.5313,385.5,992.5313" style="stroke:#181818;stroke-width:1.0;"/><line style="stroke:#181818;stroke-width:1.0;" x1="379.5" x2="379.5" y1="121.2656" y2="141.2656"/><polygon fill="#181818" points="375.5,131.2656,379.5,141.2656,383.5,131.2656,379.5,135.2656" style="stroke:#181818;stroke-width:1.0;"/></g></svg>