<?xml version="1.0" encoding="us-ascii" standalone="no"?><svg xmlns="http://www.w3.org/2000/svg" xmlns:xlink="http://www.w3.org/1999/xlink" contentStyleType="text/css" height="367px" preserveAspectRatio="none" style="width:960px;height:367px;background:#FFFFFF;" version="1.1" viewBox="0 0 960 367" width="960px" zoomAndPan="magnify"><defs/><g><text fill="#000000" font-family="sans-serif" font-size="14" font-weight="bold" lengthAdjust="spacing" textLength="525" x="216.25" y="32.9951">Thread Processing Task Process - Activity (Task Submission Flow)</text><ellipse cx="475.5" cy="57.2969" fill="#222222" rx="10" ry="10" style="stroke:#222222;stroke-width:1.0;"/><rect fill="#F1F1F1" height="33.9688" rx="12.5" ry="12.5" style="stroke:#181818;stroke-width:0.5;" width="116" x="417.5" y="87.2969"/><text fill="#000000" font-family="sans-serif" font-size="12" lengthAdjust="spacing" textLength="96" x="427.5" y="108.4355">Task submitted</text><polygon fill="#F1F1F1" points="32,141.2656,174,141.2656,186,153.2656,174,165.2656,32,165.2656,20,153.2656,32,141.2656" style="stroke:#181818;stroke-width:0.5;"/><text fill="#000000" font-family="sans-serif" font-size="11" lengthAdjust="spacing" textLength="20" x="107" y="175.4761">yes</text><text fill="#000000" font-family="sans-serif" font-size="11" lengthAdjust="spacing" textLength="142" x="32" y="157.0737">poolSize &lt; corePoolSize?</text><rect fill="#F1F1F1" height="33.9688" rx="12.5" ry="12.5" style="stroke:#181818;stroke-width:0.5;" width="183" x="11.5" y="196.9761"/><text fill="#000000" font-family="sans-serif" font-size="12" lengthAdjust="spacing" textLength="163" x="21.5" y="218.1147">Create new worker thread</text><rect fill="#F1F1F1" height="33.9688" rx="12.5" ry="12.5" style="stroke:#181818;stroke-width:0.5;" width="179" x="13.5" y="265.9448"/><text fill="#000000" font-family="sans-serif" font-size="12" lengthAdjust="spacing" textLength="159" x="23.5" y="287.0835">Execute task immediately</text><ellipse cx="103" cy="345.9136" fill="none" rx="11" ry="11" style="stroke:#222222;stroke-width:1.0;"/><ellipse cx="103" cy="345.9136" fill="#222222" rx="6" ry="6" style="stroke:#222222;stroke-width:1.0;"/><polygon fill="#F1F1F1" points="260.5,141.2656,405.5,141.2656,417.5,153.2656,405.5,165.2656,260.5,165.2656,248.5,153.2656,260.5,141.2656" style="stroke:#181818;stroke-width:0.5;"/><text fill="#000000" font-family="sans-serif" font-size="11" lengthAdjust="spacing" textLength="20" x="337" y="175.4761">yes</text><text fill="#000000" font-family="sans-serif" font-size="11" lengthAdjust="spacing" textLength="145" x="260.5" y="157.0737">workQueue has capacity?</text><rect fill="#F1F1F1" height="33.9688" rx="12.5" ry="12.5" style="stroke:#181818;stroke-width:0.5;" width="209" x="228.5" y="196.9761"/><text fill="#000000" font-family="sans-serif" font-size="12" lengthAdjust="spacing" textLength="189" x="238.5" y="218.1147">Enqueue task into workQueue</text><rect fill="#F1F1F1" height="33.9688" rx="12.5" ry="12.5" style="stroke:#181818;stroke-width:0.5;" width="257" x="204.5" y="265.9448"/><text fill="#000000" font-family="sans-serif" font-size="12" lengthAdjust="spacing" textLength="237" x="214.5" y="287.0835">Wait for scheduling by worker threads</text><ellipse cx="333" cy="345.9136" fill="none" rx="11" ry="11" style="stroke:#222222;stroke-width:1.0;"/><ellipse cx="333" cy="345.9136" fill="#222222" rx="6" ry="6" style="stroke:#222222;stroke-width:1.0;"/><polygon fill="#F1F1F1" points="493.5,141.2656,666.5,141.2656,678.5,153.2656,666.5,165.2656,493.5,165.2656,481.5,153.2656,493.5,141.2656" style="stroke:#181818;stroke-width:0.5;"/><text fill="#000000" font-family="sans-serif" font-size="11" lengthAdjust="spacing" textLength="20" x="584" y="175.4761">yes</text><text fill="#000000" font-family="sans-serif" font-size="11" lengthAdjust="spacing" textLength="173" x="493.5" y="157.0737">poolSize &lt; maximumPoolSize?</text><text fill="#000000" font-family="sans-serif" font-size="11" lengthAdjust="spacing" textLength="14" x="678.5" y="150.6714">no</text><rect fill="#F1F1F1" height="33.9688" rx="12.5" ry="12.5" style="stroke:#181818;stroke-width:0.5;" width="183" x="488.5" y="196.9761"/><text fill="#000000" font-family="sans-serif" font-size="12" lengthAdjust="spacing" textLength="163" x="498.5" y="218.1147">Create new worker thread</text><rect fill="#F1F1F1" height="33.9688" rx="12.5" ry="12.5" style="stroke:#181818;stroke-width:0.5;" width="179" x="490.5" y="265.9448"/><text fill="#000000" font-family="sans-serif" font-size="12" lengthAdjust="spacing" textLength="159" x="500.5" y="287.0835">Execute task immediately</text><ellipse cx="580" cy="345.9136" fill="none" rx="11" ry="11" style="stroke:#222222;stroke-width:1.0;"/><ellipse cx="580" cy="345.9136" fill="#222222" rx="6" ry="6" style="stroke:#222222;stroke-width:1.0;"/><rect fill="#F1F1F1" height="33.9688" rx="12.5" ry="12.5" style="stroke:#181818;stroke-width:0.5;" width="251" x="698.5" y="228.0581"/><text fill="#000000" font-family="sans-serif" font-size="12" lengthAdjust="spacing" textLength="231" x="708.5" y="249.1968">Handle by RejectedExecutionHandler</text><ellipse cx="824" cy="308.0269" fill="none" rx="11" ry="11" style="stroke:#222222;stroke-width:1.0;"/><ellipse cx="824" cy="308.0269" fill="#222222" rx="6" ry="6" style="stroke:#222222;stroke-width:1.0;"/><line style="stroke:#181818;stroke-width:1.0;" x1="475.5" x2="475.5" y1="67.2969" y2="87.2969"/><polygon fill="#181818" points="471.5,77.2969,475.5,87.2969,479.5,77.2969,475.5,81.2969" style="stroke:#181818;stroke-width:1.0;"/><line style="stroke:#181818;stroke-width:1.0;" x1="103" x2="103" y1="230.9448" y2="265.9448"/><polygon fill="#181818" points="99,255.9448,103,265.9448,107,255.9448,103,259.9448" style="stroke:#181818;stroke-width:1.0;"/><line style="stroke:#181818;stroke-width:1.0;" x1="103" x2="103" y1="299.9136" y2="334.9136"/><polygon fill="#181818" points="99,324.9136,103,334.9136,107,324.9136,103,328.9136" style="stroke:#181818;stroke-width:1.0;"/><line style="stroke:#181818;stroke-width:1.0;" x1="333" x2="333" y1="230.9448" y2="265.9448"/><polygon fill="#181818" points="329,255.9448,333,265.9448,337,255.9448,333,259.9448" style="stroke:#181818;stroke-width:1.0;"/><line style="stroke:#181818;stroke-width:1.0;" x1="333" x2="333" y1="299.9136" y2="334.9136"/><polygon fill="#181818" points="329,324.9136,333,334.9136,337,324.9136,333,328.9136" style="stroke:#181818;stroke-width:1.0;"/><line style="stroke:#181818;stroke-width:1.0;" x1="580" x2="580" y1="230.9448" y2="265.9448"/><polygon fill="#181818" points="576,255.9448,580,265.9448,584,255.9448,580,259.9448" style="stroke:#181818;stroke-width:1.0;"/><line style="stroke:#181818;stroke-width:1.0;" x1="580" x2="580" y1="299.9136" y2="334.9136"/><polygon fill="#181818" points="576,324.9136,580,334.9136,584,324.9136,580,328.9136" style="stroke:#181818;stroke-width:1.0;"/><line style="stroke:#181818;stroke-width:1.0;" x1="824" x2="824" y1="262.0269" y2="297.0269"/><polygon fill="#181818" points="820,287.0269,824,297.0269,828,287.0269,824,291.0269" style="stroke:#181818;stroke-width:1.0;"/><line style="stroke:#181818;stroke-width:1.0;" x1="103" x2="103" y1="165.2656" y2="196.9761"/><polygon fill="#181818" points="99,186.9761,103,196.9761,107,186.9761,103,190.9761" style="stroke:#181818;stroke-width:1.0;"/><line style="stroke:#181818;stroke-width:1.0;" x1="333" x2="333" y1="165.2656" y2="196.9761"/><polygon fill="#181818" points="329,186.9761,333,196.9761,337,186.9761,333,190.9761" style="stroke:#181818;stroke-width:1.0;"/><line style="stroke:#181818;stroke-width:1.0;" x1="580" x2="580" y1="165.2656" y2="196.9761"/><polygon fill="#181818" points="576,186.9761,580,196.9761,584,186.9761,580,190.9761" style="stroke:#181818;stroke-width:1.0;"/><line style="stroke:#181818;stroke-width:1.0;" x1="186" x2="248.5" y1="153.2656" y2="153.2656"/><polygon fill="#181818" points="238.5,149.2656,248.5,153.2656,238.5,157.2656,242.5,153.2656" style="stroke:#181818;stroke-width:1.0;"/><line style="stroke:#181818;stroke-width:1.0;" x1="417.5" x2="481.5" y1="153.2656" y2="153.2656"/><polygon fill="#181818" points="471.5,149.2656,481.5,153.2656,471.5,157.2656,475.5,153.2656" style="stroke:#181818;stroke-width:1.0;"/><line style="stroke:#181818;stroke-width:1.0;" x1="475.5" x2="475.5" y1="121.2656" y2="126.2656"/><line style="stroke:#181818;stroke-width:1.0;" x1="475.5" x2="103" y1="126.2656" y2="126.2656"/><line style="stroke:#181818;stroke-width:1.0;" x1="103" x2="103" y1="126.2656" y2="141.2656"/><polygon fill="#181818" points="99,131.2656,103,141.2656,107,131.2656,103,135.2656" style="stroke:#181818;stroke-width:1.0;"/><line style="stroke:#181818;stroke-width:1.0;" x1="678.5" x2="824" y1="153.2656" y2="153.2656"/><line style="stroke:#181818;stroke-width:1.0;" x1="824" x2="824" y1="153.2656" y2="228.0581"/><polygon fill="#181818" points="820,218.0581,824,228.0581,828,218.0581,824,222.0581" style="stroke:#181818;stroke-width:1.0;"/></g></svg>